<svg id="Layer_1" data-name="Layer 1" xmlns="http://www.w3.org/2000/svg" viewBox="0 0 512 512"><defs><style>.cls-1{fill:#f1592a;}</style></defs><title>Artboard 1</title><path class="cls-1" d="M113.53,381.83,197.68,19.62C91,46,11.85,142.28,11.85,257.12A243.43,243.43,0,0,0,46,381.83Z"/><path class="cls-1" d="M299.09,129.94H221.92l-22.64,97.43h88.34c47.35,0,68.46-15.87,68.46-51.47C356.08,144.12,338.51,129.94,299.09,129.94Z"/><path class="cls-1" d="M189.4,269.9l-26,111.85H295.88c32.07,0,70.3-9.65,70.3-55.6,0-37.19-19.13-53.77-62-53.77Z"/><path class="cls-1" d="M296.47,426.76l-216,.18a244.58,244.58,0,0,0,262.82,59Z"/><path class="cls-1" d="M256.52,12.45c-2.46,0-4.9.11-7.35.18L232.36,85h73.17c61.55,0,98.31,33.49,98.31,89.58,0,31.71-15.2,56.63-41.59,69.77,33.67,12.79,54.46,43.12,54.46,81.85,0,44.62-24.16,77.9-66.71,92.65l36.22,45.76a244.46,244.46,0,0,0,115-207.44C501.19,122,391.65,12.45,256.52,12.45Z"/></svg>